<?xml version="1.0" standalone="no"?>
<!DOCTYPE svg PUBLIC "-//W3C//DTD SVG 20010904//EN"
 "http://www.w3.org/TR/2001/REC-SVG-20010904/DTD/svg10.dtd">
<svg version="1.0" xmlns="http://www.w3.org/2000/svg"
 width="1000.000000pt" height="1000.000000pt" viewBox="0 0 1000.000000 1000.000000"
 preserveAspectRatio="xMidYMid meet">
<metadata>
Created by potrace 1.11, written by Peter Selinger 2001-2013
</metadata>
<g transform="translate(0.000000,1000.000000) scale(0.100000,-0.100000)"
fill="#000000" stroke="none">
<path d="M4780 8655 c-842 -140 -1358 -972 -1103 -1779 148 -470 544 -824
1044 -932 119 -26 409 -26 529 -1 287 61 525 192 724 397 254 262 386 588 386
956 0 651 -443 1198 -1089 1345 -116 26 -373 34 -491 14z"/>
<path d="M3435 5716 c-70 -30 -114 -102 -717 -1177 -328 -585 -608 -1090 -622
-1121 -42 -95 -58 -175 -54 -263 5 -98 18 -124 105 -210 132 -130 606 -497
1068 -827 l190 -135 791 -327 791 -327 799 329 799 328 585 418 c322 230 604
437 628 460 105 101 169 244 160 360 -14 161 -239 623 -673 1381 -314 548
-550 938 -599 987 -26 27 -77 62 -118 83 l-73 35 -740 5 c-2206 14 -2289 14
-2320 1z m2499 -1621 c477 168 869 305 871 305 3 0 5 -273 5 -606 l0 -605
-115 -161 -115 -161 0 608 c0 481 -3 606 -12 603 -7 -3 -362 -136 -789 -296
-426 -161 -782 -292 -791 -292 -8 0 -369 133 -801 295 -433 162 -789 295 -792
295 -3 0 -6 -240 -7 -534 l-3 -535 -107 92 -107 92 -1 311 c0 171 3 446 7 611
l6 300 942 -314 942 -314 867 306z"/>
</g>
</svg>
