<?xml version="1.0" standalone="no"?>
<!DOCTYPE svg PUBLIC "-//W3C//DTD SVG 20010904//EN"
 "http://www.w3.org/TR/2001/REC-SVG-20010904/DTD/svg10.dtd">
<svg version="1.0" xmlns="http://www.w3.org/2000/svg"
 width="1000.000000pt" height="1000.000000pt" viewBox="0 0 1000.000000 1000.000000"
 preserveAspectRatio="xMidYMid meet">
<metadata>
Created by potrace 1.11, written by Peter Selinger 2001-2013
</metadata>
<g transform="translate(0.000000,1000.000000) scale(0.100000,-0.100000)"
fill="#000000" stroke="none">
<path d="M2437 8392 l-267 -267 0 -3125 0 -3125 270 -270 270 -270 190 190
190 190 190 -190 190 -190 188 188 c103 103 192 187 197 187 5 0 94 -84 197
-187 l188 -188 190 190 190 190 190 -190 190 -190 190 190 190 190 190 -190
190 -190 188 188 c103 103 192 187 197 187 5 0 94 -84 197 -187 l188 -188 190
190 190 190 190 -190 190 -190 270 270 270 270 0 3125 0 3125 -270 270 -270
270 -190 -190 -190 -190 -190 190 -190 190 -188 -188 c-103 -103 -192 -187
-197 -187 -5 0 -94 84 -197 187 l-188 188 -190 -190 -190 -190 -190 190 -190
190 -190 -190 -190 -190 -190 190 -190 190 -188 -188 c-103 -103 -192 -187
-197 -187 -5 0 -94 84 -197 187 l-188 188 -190 -190 -190 -190 -188 188 c-103
103 -189 187 -192 187 -3 0 -125 -120 -273 -268z m465 -369 l188 -188 190 190
190 190 193 -193 192 -192 190 190 190 190 190 -190 190 -190 192 192 193 193
193 -193 192 -192 190 190 190 190 190 -190 190 -190 192 192 193 193 190
-190 190 -190 190 190 190 190 115 -115 115 -115 0 -2985 0 -2985 -115 -115
-115 -115 -190 190 -190 190 -190 -190 -190 -190 -193 193 -192 192 -190 -190
-190 -190 -190 190 -190 190 -192 -192 -193 -193 -193 193 -192 192 -190 -190
-190 -190 -190 190 -190 190 -193 -192 -192 -193 -190 190 -190 190 -190 -190
-190 -190 -115 115 -115 115 0 2985 0 2985 112 112 c62 62 115 113 118 113 3
0 89 -84 192 -187z"/>
<path d="M3090 7290 l0 -160 1938 2 1937 3 3 158 3 157 -1941 0 -1940 0 0
-160z"/>
<path d="M3090 6150 l0 -540 1940 0 1940 0 0 540 0 540 -1940 0 -1940 0 0
-540z m3558 -2 l-3 -223 -1617 -3 -1618 -2 0 225 0 225 1620 0 1620 0 -2 -222z"/>
<path d="M3090 5000 l0 -160 475 0 475 0 0 160 0 160 -475 0 -475 0 0 -160z"/>
<path d="M4460 4235 l0 -925 1255 0 1255 0 0 925 0 925 -1255 0 -1255 0 0
-925z m2190 0 l0 -605 -935 0 -935 0 0 605 0 605 935 0 935 0 0 -605z"/>
<path d="M3090 4235 l0 -155 475 0 475 0 0 155 0 155 -475 0 -475 0 0 -155z"/>
<path d="M3090 3470 l0 -160 475 0 475 0 0 160 0 160 -475 0 -475 0 0 -160z"/>
<path d="M3090 2710 l0 -160 1940 0 1941 0 -3 158 -3 157 -1937 3 -1938 2 0
-160z"/>
</g>
</svg>
