<?xml version="1.0" standalone="no"?>
<!DOCTYPE svg PUBLIC "-//W3C//DTD SVG 20010904//EN"
 "http://www.w3.org/TR/2001/REC-SVG-20010904/DTD/svg10.dtd">
<svg version="1.0" xmlns="http://www.w3.org/2000/svg"
 width="240.000000pt" height="240.000000pt" viewBox="0 0 240.000000 240.000000"
 preserveAspectRatio="xMidYMid meet">
<metadata>
Created by potrace 1.11, written by Peter Selinger 2001-2013
</metadata>
<g transform="translate(0.000000,240.000000) scale(0.100000,-0.100000)"
fill="#000000" stroke="none">
<path d="M483 1686 c-162 -40 -308 -174 -357 -329 -15 -47 -21 -56 -46 -61
-104 -20 -104 -172 0 -192 25 -5 31 -14 46 -61 50 -160 204 -297 372 -332 267
-56 520 110 588 385 20 82 47 139 69 148 9 3 32 6 50 6 40 0 79 -41 95 -100 5
-22 15 -59 21 -82 54 -209 261 -368 479 -368 209 0 412 147 474 343 15 47 21
56 46 61 104 20 104 172 0 192 -25 5 -31 14 -46 61 -62 196 -265 343 -474 343
-207 0 -415 -149 -471 -337 -7 -24 -13 -43 -14 -43 -2 0 -19 7 -38 15 -47 19
-120 19 -158 -1 -17 -8 -32 -14 -33 -12 -1 2 -11 26 -21 53 -85 234 -340 369
-582 311z m281 -124 c91 -42 149 -100 194 -190 35 -72 37 -81 37 -172 0 -91
-2 -100 -37 -172 -45 -91 -103 -147 -196 -191 -61 -29 -76 -32 -162 -32 -86 0
-101 3 -162 32 -93 44 -151 100 -196 191 -35 72 -37 81 -37 171 0 87 3 102 32
163 40 85 97 147 172 186 78 42 122 52 213 48 61 -3 92 -11 142 -34z m1200 0
c91 -42 149 -100 194 -190 35 -72 37 -81 37 -172 0 -91 -2 -100 -37 -172 -45
-91 -103 -147 -196 -191 -61 -29 -76 -32 -162 -32 -86 0 -101 3 -162 32 -93
44 -151 100 -196 191 -35 72 -37 81 -37 171 0 87 3 102 32 163 40 85 97 147
172 186 78 42 122 52 213 48 61 -3 92 -11 142 -34z"/>
<path d="M539 1484 c-133 -40 -239 -180 -239 -313 l0 -36 35 58 c75 124 170
212 293 269 34 17 62 32 62 34 0 10 -109 1 -151 -12z"/>
<path d="M1710 1497 c0 -3 28 -18 63 -35 121 -57 215 -143 293 -269 l36 -58
-5 58 c-15 166 -148 293 -319 305 -37 2 -68 2 -68 -1z"/>
</g>
</svg>
